<svg width="24" height="24" viewBox="0 0 24 24" fill="none" xmlns="http://www.w3.org/2000/svg">
<g clip-path="url(#clip0_4656_10294)">
<path d="M13.5605 0.807327C13.5605 0.363697 13.9883 0 14.5215 0C15.0547 0 15.4824 0.3597 15.4824 0.807327V4.33639C15.4824 4.78002 15.0547 5.14371 14.5215 5.14371C13.9883 5.14371 13.5605 4.78401 13.5605 4.33639V0.807327ZM2.61914 11.4245C2.56445 11.4245 2.51563 11.1787 2.51563 10.8789C2.51563 10.5792 2.55859 10.3354 2.61914 10.3354H5.24414C5.29883 10.3354 5.34766 10.5812 5.34766 10.8789C5.34766 11.1787 5.30469 11.4245 5.24414 11.4245H2.61914ZM6.80078 11.4245C6.74609 11.4245 6.69727 11.1787 6.69727 10.8789C6.69727 10.5792 6.74023 10.3354 6.80078 10.3354H9.42578C9.48047 10.3354 9.5293 10.5812 9.5293 10.8789C9.5293 11.1787 9.48633 11.4245 9.42578 11.4245H6.80078ZM10.9844 11.4245C10.9297 11.4245 10.8809 11.1787 10.8809 10.8789C10.8809 10.5792 10.9238 10.3354 10.9844 10.3354H13.6094C13.6641 10.3354 13.7129 10.5792 13.7129 10.8769C13.4492 11.0448 13.1973 11.2266 12.9551 11.4245H10.9844ZM2.625 14.5479C2.57031 14.5479 2.52148 14.3021 2.52148 14.0023C2.52148 13.7026 2.56445 13.4568 2.625 13.4568H5.25C5.30469 13.4568 5.35352 13.7026 5.35352 14.0023C5.35352 14.3041 5.31055 14.5479 5.25 14.5479H2.625ZM6.80664 14.5479C6.75195 14.5479 6.70313 14.3021 6.70313 14.0023C6.70313 13.7026 6.74609 13.4568 6.80664 13.4568H9.43164C9.48633 13.4568 9.53516 13.7026 9.53516 14.0023C9.53516 14.3041 9.49219 14.5479 9.43164 14.5479H6.80664ZM2.62891 17.6713C2.57422 17.6713 2.52539 17.4255 2.52539 17.1257C2.52539 16.824 2.56836 16.5802 2.62891 16.5802H5.25391C5.30859 16.5802 5.35742 16.826 5.35742 17.1257C5.35742 17.4255 5.31445 17.6713 5.25391 17.6713H2.62891ZM6.8125 17.6713C6.75781 17.6713 6.70898 17.4255 6.70898 17.1257C6.70898 16.824 6.75195 16.5802 6.8125 16.5802H9.4375C9.49219 16.5802 9.54102 16.826 9.54102 17.1257C9.54102 17.4255 9.49805 17.6713 9.4375 17.6713H6.8125ZM4.92383 0.807327C4.92383 0.361699 5.35156 0 5.88477 0C6.41797 0 6.8457 0.3597 6.8457 0.807327V4.33639C6.8457 4.78002 6.41602 5.14371 5.88477 5.14371C5.35156 5.14371 4.92383 4.78401 4.92383 4.33639V0.807327ZM1.05859 7.71557H19.373V3.65296C19.373 3.51307 19.3184 3.39117 19.2305 3.30325C19.1426 3.21332 19.0176 3.15737 18.8887 3.15737H17.1328C16.8379 3.15737 16.5996 2.91157 16.5996 2.61182C16.5996 2.31207 16.8379 2.06628 17.1328 2.06628H18.8887C19.3184 2.06628 19.7051 2.24413 19.9863 2.53189C20.2695 2.82165 20.4414 3.21532 20.4414 3.65495V10.1056C20.0918 9.98168 19.7305 9.88177 19.3613 9.80783V8.80067H19.373H1.05859V19.3239C1.05859 19.4638 1.11328 19.5857 1.20117 19.6736C1.28906 19.7635 1.41406 19.8195 1.54297 19.8195H10.2461C10.3457 20.1972 10.4707 20.5669 10.6191 20.9206H1.55273C1.125 20.9206 0.736328 20.7427 0.455078 20.455C0.173828 20.1672 0 19.7735 0 19.3339V3.65695C0 3.21932 0.173828 2.82165 0.455078 2.53389C0.738281 2.24413 1.12305 2.06828 1.55273 2.06828H3.42773C3.7207 2.06828 3.96094 2.31407 3.96094 2.61382C3.96094 2.91357 3.7207 3.15937 3.42773 3.15937H1.55273C1.41602 3.15937 1.29688 3.21532 1.21094 3.30525C1.12305 3.39517 1.06836 3.52306 1.06836 3.65495V7.71757L1.05859 7.71557ZM8.38477 3.15737C8.0918 3.15737 7.85156 2.91157 7.85156 2.61182C7.85156 2.31207 8.0918 2.06628 8.38477 2.06628H11.959C12.2539 2.06628 12.4922 2.31207 12.4922 2.61182C12.4922 2.91357 12.252 3.15737 11.959 3.15737H8.38477Z" fill="#393939"/>
<path fill-rule="evenodd" clip-rule="evenodd" d="M17.791 11.2966C19.5059 11.2966 21.0586 12.008 22.1816 13.157C23.3027 14.3081 23.998 15.8967 23.998 17.6493C23.998 19.4018 23.3027 20.9925 22.1816 22.1415C21.0566 23.2906 19.5039 24.002 17.791 24.002C16.0781 24.002 14.5234 23.2906 13.4004 22.1415C12.2773 20.9905 11.582 19.4018 11.582 17.6493C11.582 15.8967 12.2773 14.3061 13.4004 13.157C14.5234 12.008 16.0762 11.2966 17.791 11.2966ZM15.0566 18.3247C15.0273 18.2927 15.002 18.2588 14.9805 18.2228C14.957 18.1868 14.9395 18.1489 14.9219 18.1089C14.8672 17.977 14.8535 17.8371 14.877 17.7012C14.9004 17.5673 14.959 17.4394 15.0527 17.3355L15.0879 17.2996C15.3203 17.0738 15.6719 17.0318 15.9473 17.2016C15.9863 17.2256 16.0234 17.2536 16.0586 17.2876L16.0625 17.2916C16.2578 17.4834 16.5879 17.7971 16.8047 17.993L16.9902 18.1628L19.2676 15.7189C19.2988 15.6849 19.334 15.6549 19.373 15.629C19.4121 15.601 19.4512 15.579 19.4922 15.561C19.5332 15.543 19.5781 15.527 19.623 15.5171C19.668 15.5071 19.7148 15.5011 19.7598 15.5011H19.7617C19.8066 15.5011 19.8516 15.5031 19.8965 15.5111C19.9414 15.519 19.9844 15.531 20.0312 15.549C20.0742 15.565 20.1152 15.587 20.1543 15.611C20.1914 15.635 20.2266 15.6629 20.2617 15.6969L20.2773 15.7129C20.3086 15.7449 20.3379 15.7808 20.3633 15.8188C20.3887 15.8568 20.4121 15.8987 20.4297 15.9407C20.4492 15.9827 20.4629 16.0286 20.4727 16.0746C20.4824 16.1205 20.4883 16.1665 20.4902 16.2145V16.2384C20.4902 16.2804 20.4863 16.3224 20.4785 16.3623C20.4707 16.4063 20.459 16.4523 20.4434 16.4942C20.4277 16.5382 20.4062 16.5802 20.3828 16.6201C20.3594 16.6601 20.3301 16.6961 20.2988 16.73L17.5449 19.6816C17.5117 19.7175 17.4785 19.7475 17.4414 19.7735C17.4043 19.8015 17.3633 19.8235 17.3223 19.8434C17.2812 19.8634 17.2363 19.8774 17.1914 19.8894C17.1465 19.9014 17.1016 19.9074 17.0547 19.9094H17.043C17 19.9094 16.957 19.9074 16.918 19.9014L16.9082 19.8994C16.8672 19.8914 16.8262 19.8814 16.7871 19.8674C16.7441 19.8514 16.7031 19.8315 16.6641 19.8075L16.6582 19.8035C16.6211 19.7795 16.5859 19.7535 16.5527 19.7255L16.5469 19.7195C16.3867 19.5677 16.2129 19.4138 16.0391 19.2579C15.7324 18.9882 15.3105 18.5985 15.0566 18.3247Z" fill="#6BBE66"/>
</g>
<defs>
<clipPath id="clip0_4656_10294">
<rect width="24" height="24" fill="white"/>
</clipPath>
</defs>
</svg>
