<svg width="24" height="24" viewBox="0 0 24 24" fill="none" xmlns="http://www.w3.org/2000/svg">
<g clip-path="url(#clip0_4656_8613)">
<path d="M13.6055 0.809595C13.6055 0.363818 14.0352 0 14.5703 0C15.1055 0 15.5352 0.361819 15.5352 0.809595V4.35182C15.5352 4.7976 15.1055 5.16142 14.5703 5.16142C14.0352 5.16142 13.6055 4.7996 13.6055 4.35182V0.809595ZM17.8457 11.4003C18.6777 11.4003 19.4727 11.5702 20.1992 11.8781C20.9551 12.1979 21.6328 12.6657 22.1992 13.2454C22.7656 13.8251 23.2227 14.5207 23.5352 15.2904C23.8359 16.034 24.002 16.8476 24.002 17.6992C24.002 18.5507 23.8359 19.3643 23.5352 20.1079C23.2227 20.8816 22.7656 21.5752 22.1992 22.1549C21.6328 22.7346 20.9531 23.2024 20.2012 23.5222C19.4746 23.8301 18.6797 24 17.8477 24C17.0156 24 16.2207 23.8301 15.4941 23.5222C14.7383 23.2024 14.0605 22.7346 13.4941 22.1549C12.9277 21.5752 12.4707 20.8796 12.1582 20.1079C11.8574 19.3643 11.6914 18.5507 11.6914 17.6992C11.6914 16.8476 11.8574 16.034 12.1582 15.2904C12.4707 14.5167 12.9277 13.8231 13.4941 13.2434C14.0605 12.6637 14.7402 12.1959 15.4922 11.8761C16.2188 11.5702 17.0117 11.4003 17.8457 11.4003ZM17.3848 15.0665C17.3848 14.9145 17.4453 14.7766 17.543 14.6767C17.6406 14.5767 17.7754 14.5147 17.9258 14.5147C18.0762 14.5147 18.2109 14.5767 18.3086 14.6767C18.4062 14.7766 18.4668 14.9145 18.4668 15.0685V18.015L20.6191 19.3223L20.6367 19.3343C20.7559 19.4123 20.834 19.5302 20.8652 19.6602C20.8984 19.7961 20.8828 19.944 20.8105 20.072L20.8066 20.078C20.8027 20.086 20.7988 20.092 20.793 20.098C20.7168 20.2179 20.6016 20.2979 20.4766 20.3298C20.3438 20.3638 20.1992 20.3478 20.0742 20.2739L17.668 18.8166C17.584 18.7706 17.5137 18.7007 17.4629 18.6187C17.4121 18.5347 17.3828 18.4368 17.3828 18.3328L17.3848 15.0665ZM21.4355 14.025C20.9668 13.5452 20.4082 13.1594 19.7891 12.8976C19.1914 12.6437 18.5352 12.5057 17.8457 12.5057C17.1562 12.5057 16.5 12.6457 15.9023 12.8976C15.2832 13.1594 14.7246 13.5452 14.2559 14.025C13.7871 14.5047 13.4102 15.0765 13.1543 15.7101C12.9062 16.3218 12.7715 16.9935 12.7715 17.6992C12.7715 18.4048 12.9082 19.0765 13.1543 19.6882C13.4102 20.3218 13.7871 20.8936 14.2559 21.3733C14.7246 21.8531 15.2832 22.2389 15.9023 22.5007C16.5 22.7546 17.1562 22.8926 17.8457 22.8926C18.5352 22.8926 19.1914 22.7526 19.7891 22.5007C20.4082 22.2389 20.9668 21.8531 21.4355 21.3733C22.3555 20.4318 22.9219 19.1344 22.9219 17.6992C22.9219 16.9935 22.7852 16.3218 22.5391 15.7101C22.2812 15.0765 21.9043 14.5047 21.4355 14.025ZM2.62695 11.4663C2.57227 11.4663 2.52344 11.2204 2.52344 10.9185C2.52344 10.6167 2.56641 10.3728 2.62695 10.3728H5.25977C5.31445 10.3728 5.36328 10.6187 5.36328 10.9185C5.36328 11.2204 5.32031 11.4663 5.25977 11.4663H2.62695ZM6.82422 11.4663C6.76953 11.4663 6.7207 11.2204 6.7207 10.9185C6.7207 10.6167 6.76367 10.3728 6.82422 10.3728H9.45703C9.51172 10.3728 9.56055 10.6187 9.56055 10.9185C9.56055 11.2204 9.51758 11.4663 9.45703 11.4663H6.82422ZM11.0215 11.4663C10.9668 11.4663 10.918 11.2204 10.918 10.9185C10.918 10.6167 10.9609 10.3728 11.0215 10.3728H13.6543C13.709 10.3728 13.7578 10.6167 13.7578 10.9165C13.4941 11.0845 13.2402 11.2684 12.998 11.4663H11.0215ZM2.63281 14.6007C2.57812 14.6007 2.5293 14.3548 2.5293 14.053C2.5293 13.7511 2.57227 13.5052 2.63281 13.5052H5.26562C5.32031 13.5052 5.36914 13.7511 5.36914 14.053C5.36914 14.3548 5.32617 14.6007 5.26562 14.6007H2.63281ZM6.83008 14.6007C6.77539 14.6007 6.72656 14.3548 6.72656 14.053C6.72656 13.7511 6.76953 13.5052 6.83008 13.5052H9.46289C9.51758 13.5052 9.56641 13.7511 9.56641 14.053C9.56641 14.3548 9.52344 14.6007 9.46289 14.6007H6.83008ZM2.63867 17.7371C2.58398 17.7371 2.53516 17.4913 2.53516 17.1894C2.53516 16.8876 2.57812 16.6417 2.63867 16.6417H5.27148C5.32617 16.6417 5.375 16.8876 5.375 17.1894C5.375 17.4913 5.33203 17.7371 5.27148 17.7371H2.63867ZM6.83594 17.7371C6.78125 17.7371 6.73242 17.4913 6.73242 17.1894C6.73242 16.8876 6.77539 16.6417 6.83594 16.6417H9.46875C9.52344 16.6417 9.57227 16.8876 9.57227 17.1894C9.57227 17.4913 9.5293 17.7371 9.46875 17.7371H6.83594ZM4.93945 0.809595C4.93945 0.363818 5.36914 0 5.9043 0C6.43945 0 6.86914 0.361819 6.86914 0.809595V4.35182C6.86914 4.7976 6.4375 5.16142 5.9043 5.16142C5.36914 5.16142 4.93945 4.7996 4.93945 4.35182V0.809595ZM1.0625 7.74413H19.4375V3.66617C19.4375 3.52624 19.3828 3.4043 19.2949 3.31434C19.207 3.22439 19.082 3.16842 18.9512 3.16842H17.1895C16.8945 3.16842 16.6543 2.92254 16.6543 2.62069C16.6543 2.31884 16.8945 2.07296 17.1895 2.07296H18.9512C19.3828 2.07296 19.7695 2.25087 20.0527 2.54073C20.3359 2.83058 20.5098 3.22639 20.5098 3.66817V10.1429C20.1582 10.019 19.7969 9.91904 19.4258 9.84508V8.83358H19.4375H1.0625V19.3943C1.0625 19.5342 1.11719 19.6562 1.20508 19.7461C1.29297 19.8361 1.41797 19.8921 1.54883 19.8921H10.2812C10.3809 20.2719 10.5059 20.6417 10.6562 20.9975H1.55859C1.12891 20.9975 0.740234 20.8196 0.457031 20.5297C0.173828 20.2419 0 19.8461 0 19.4043V3.67017C0 3.23039 0.173828 2.83258 0.457031 2.54273C0.740234 2.25287 1.12695 2.07496 1.55859 2.07496H3.43945C3.73438 2.07496 3.97461 2.32084 3.97461 2.62269C3.97461 2.92454 3.73438 3.17041 3.43945 3.17041H1.55859C1.42188 3.17041 1.30273 3.22639 1.21484 3.31634C1.12695 3.4063 1.07227 3.53423 1.07227 3.66817V7.74613H1.0625V7.74413ZM8.41211 3.16842C8.11719 3.16842 7.87695 2.92254 7.87695 2.62069C7.87695 2.31884 8.11719 2.07296 8.41211 2.07296H11.998C12.293 2.07296 12.5332 2.31884 12.5332 2.62069C12.5332 2.92254 12.293 3.16842 11.998 3.16842H8.41211Z" fill="black"/>
</g>
<defs>
<clipPath id="clip0_4656_8613">
<rect width="24" height="24" fill="white"/>
</clipPath>
</defs>
</svg>
