<svg width="24" height="24" viewBox="0 0 24 24" fill="none" xmlns="http://www.w3.org/2000/svg">
<g clip-path="url(#clip0_4656_8603)">
<path d="M13.3223 0.807526C13.3223 0.364099 13.7422 0 14.2676 0C14.791 0 15.2129 0.360031 15.2129 0.807526V4.33664C15.2129 4.78007 14.793 5.14417 14.2676 5.14417C13.7441 5.14417 13.3223 4.78413 13.3223 4.33664V0.807526ZM2.57227 11.4233C2.51953 11.4233 2.4707 11.1793 2.4707 10.8782C2.4707 10.5772 2.51367 10.3351 2.57227 10.3351H5.15039C5.20312 10.3351 5.25195 10.5792 5.25195 10.8782C5.25195 11.1793 5.20898 11.4233 5.15039 11.4233H2.57227ZM6.68164 11.4233C6.62891 11.4233 6.58008 11.1793 6.58008 10.8782C6.58008 10.5772 6.62305 10.3351 6.68164 10.3351H9.25977C9.3125 10.3351 9.36133 10.5792 9.36133 10.8782C9.36133 11.1793 9.31836 11.4233 9.25977 11.4233H6.68164ZM10.791 11.4233C10.7383 11.4233 10.6895 11.1793 10.6895 10.8782C10.6895 10.5772 10.7305 10.3351 10.791 10.3351H13.3691C13.4219 10.3351 13.4707 10.5772 13.4707 10.8762C13.2129 11.043 12.9648 11.226 12.7266 11.4233H10.791ZM2.57812 14.5477C2.52539 14.5477 2.47656 14.3036 2.47656 14.0025C2.47656 13.7015 2.51953 13.4574 2.57812 13.4574H5.15625C5.20898 13.4574 5.25781 13.7015 5.25781 14.0025C5.25781 14.3036 5.21484 14.5477 5.15625 14.5477H2.57812ZM6.6875 14.5477C6.63477 14.5477 6.58594 14.3036 6.58594 14.0025C6.58594 13.7015 6.62891 13.4574 6.6875 13.4574H9.26562C9.31836 13.4574 9.36719 13.7015 9.36719 14.0025C9.36719 14.3036 9.32422 14.5477 9.26562 14.5477H6.6875ZM2.58398 17.672C2.53125 17.672 2.48242 17.4279 2.48242 17.1269C2.48242 16.8258 2.52539 16.5817 2.58398 16.5817H5.16211C5.21484 16.5817 5.26367 16.8258 5.26367 17.1269C5.26367 17.4279 5.2207 17.672 5.16211 17.672H2.58398ZM6.69336 17.672C6.64062 17.672 6.5918 17.4279 6.5918 17.1269C6.5918 16.8258 6.63477 16.5817 6.69336 16.5817H9.27148C9.32422 16.5817 9.37305 16.8258 9.37305 17.1269C9.37305 17.4279 9.33008 17.672 9.27148 17.672H6.69336ZM4.83594 0.807526C4.83594 0.362065 5.25781 0 5.78125 0C6.30469 0 6.72656 0.360031 6.72656 0.807526V4.33664C6.72656 4.78007 6.30469 5.14417 5.78125 5.14417C5.25781 5.14417 4.83594 4.78413 4.83594 4.33664V0.807526ZM1.04102 7.71523H19.0332V3.65319C19.0332 3.51284 18.9785 3.39283 18.8945 3.30333C18.8086 3.21383 18.6855 3.15891 18.5586 3.15891H16.834C16.5449 3.15891 16.3105 2.91482 16.3105 2.61378C16.3105 2.31274 16.5469 2.06865 16.834 2.06865H18.5586C18.9805 2.06865 19.3594 2.24561 19.6367 2.53445C19.9141 2.82329 20.084 3.2179 20.084 3.65726V10.1073C19.7402 9.98322 19.3867 9.88355 19.0234 9.81032V8.80346H19.0352H1.04102V19.3237C1.04102 19.464 1.09375 19.584 1.17969 19.6735C1.26562 19.763 1.38867 19.818 1.51562 19.818H10.0664C10.1641 20.1963 10.2871 20.5645 10.4336 20.9204H1.52539C1.10547 20.9204 0.724609 20.7435 0.447266 20.4546C0.169922 20.1678 0 19.7732 0 19.3338V3.65726C0 3.21993 0.169922 2.82329 0.447266 2.53445C0.724609 2.24561 1.10352 2.06865 1.52539 2.06865H3.36719C3.65625 2.06865 3.89062 2.31274 3.89062 2.61378C3.89062 2.91482 3.65625 3.15891 3.36719 3.15891H1.52539C1.39062 3.15891 1.27539 3.21383 1.18945 3.30333C1.10352 3.39283 1.05078 3.52098 1.05078 3.65319V7.71523H1.04102ZM8.23633 3.15688C7.94727 3.15688 7.71289 2.91279 7.71289 2.61175C7.71289 2.3107 7.94727 2.06662 8.23633 2.06662H11.748C12.0371 2.06662 12.2715 2.3107 12.2715 2.61175C12.2715 2.91279 12.0371 3.15688 11.748 3.15688H8.23633Z" fill="#393939"/>
<path fill-rule="evenodd" clip-rule="evenodd" d="M17.8984 11.2952C18.7227 11.2952 19.5117 11.466 20.2305 11.7772C20.9805 12.0986 21.6504 12.5705 22.2129 13.1563C22.7734 13.7401 23.2266 14.4419 23.5371 15.2189C23.8359 15.9695 24 16.7892 24 17.6476C24 18.5059 23.8359 19.3277 23.5371 20.0762C23.2266 20.8553 22.7754 21.555 22.2129 22.1408C21.6504 22.7246 20.9785 23.1965 20.2324 23.5199C19.5117 23.8311 18.7246 24.002 17.9004 24.002C17.0762 24.002 16.2871 23.8311 15.5684 23.5199C14.8203 23.1965 14.1484 22.7266 13.5859 22.1408C13.0234 21.5571 12.5723 20.8553 12.2617 20.0762C11.9629 19.3257 11.7988 18.5059 11.7988 17.6476C11.7988 16.7892 11.9629 15.9695 12.2617 15.2189C12.5723 14.4398 13.0234 13.7401 13.5859 13.1543C14.1465 12.5705 14.8203 12.0986 15.5664 11.7752C16.2871 11.466 17.0723 11.2952 17.8984 11.2952ZM17.2617 15.1802C17.2617 15.0806 17.2813 14.985 17.3164 14.8955C17.3535 14.8039 17.4063 14.7226 17.4707 14.6534C17.5352 14.5843 17.6152 14.5293 17.7031 14.4927C17.7891 14.4561 17.8809 14.4358 17.9766 14.4358C18.0723 14.4358 18.1641 14.4561 18.25 14.4927C18.3398 14.5314 18.418 14.5863 18.4824 14.6534C18.5469 14.7205 18.6016 14.8039 18.6367 14.8955C18.6719 14.9829 18.6914 15.0806 18.6914 15.1802V17.853L20.3086 18.7439C20.3223 18.7521 20.3359 18.7622 20.3496 18.7704C20.4238 18.8212 20.4844 18.8843 20.5332 18.9534C20.5859 19.0287 20.623 19.1141 20.6445 19.2036C20.666 19.2952 20.6719 19.3928 20.6602 19.4884C20.6484 19.582 20.6191 19.6735 20.5723 19.7569L20.5547 19.7874L20.541 19.8057C20.4922 19.8789 20.4336 19.942 20.3691 19.9888C20.2969 20.0437 20.2148 20.0823 20.1309 20.1047C20.043 20.1271 19.9492 20.1332 19.8574 20.121C19.7676 20.1088 19.6797 20.0783 19.5996 20.0295L17.6387 18.9372C17.582 18.9067 17.5313 18.868 17.4883 18.8233C17.4434 18.7785 17.4023 18.7277 17.3691 18.6707L17.3652 18.6626C17.332 18.6056 17.3066 18.5466 17.2891 18.4836C17.2715 18.4185 17.2617 18.3514 17.2617 18.2822V15.1802Z" fill="#FF7900"/>
</g>
<defs>
<clipPath id="clip0_4656_8603">
<rect width="24" height="24" fill="white"/>
</clipPath>
</defs>
</svg>
