<svg width="31" height="21" viewBox="0 0 31 21" fill="none" xmlns="http://www.w3.org/2000/svg">
<path d="M24.9937 7.9275C24.1154 3.39937 20.2017 0 15.5 0C11.7671 0 8.525 2.1525 6.91042 5.3025C3.0225 5.7225 0 9.06938 0 13.125C0 17.4694 3.47458 21 7.75 21H24.5417C28.1067 21 31 18.06 31 14.4375C31 10.9725 28.3521 8.16375 24.9937 7.9275Z" fill="white"/>
<path fill-rule="evenodd" clip-rule="evenodd" d="M20.0209 9.1875L17.4375 11.8125H19.375C19.375 13.9847 17.6377 15.75 15.5 15.75C14.8477 15.75 14.2277 15.5859 13.6917 15.2906L12.7488 16.2487C13.5432 16.7606 14.4861 17.0625 15.5 17.0625C18.3546 17.0625 20.6667 14.7131 20.6667 11.8125H22.6042L20.0209 9.1875ZM11.625 11.8125C11.625 9.64031 13.3623 7.875 15.5 7.875C16.1523 7.875 16.7723 8.03906 17.3084 8.33438L18.2513 7.37625C17.4569 6.86438 16.514 6.5625 15.5 6.5625C12.6455 6.5625 10.3334 8.91188 10.3334 11.8125H8.39587L10.9792 14.4375L13.5625 11.8125H11.625Z" fill="#EA0029"/>
</svg>
